<svg xmlns="http://www.w3.org/2000/svg" xmlns:xlink="http://www.w3.org/1999/xlink" width="255" height="155" viewBox="0 0 255 155">
  <defs>
    <clipPath id="clip-Wide">
      <rect width="255" height="155"/>
    </clipPath>
  </defs>
  <g id="Wide" clip-path="url(#clip-Wide)">
    <rect width="255" height="155" fill="#fff"/>
    <g id="Group_2" data-name="Group 2" transform="translate(0 23.819)">
      <path id="Path_1" data-name="Path 1" d="M19.219,46.392a8.232,8.232,0,0,0,7.372,4.186c2.859,0,5.832-1.761,5.832-4.677,0-7-15.08-2.1-15.08-11.788,0-4.915,4.514-7.323,8.7-7.323s7.315,1.548,8.97,4.792l-2.974,1.761a6.226,6.226,0,0,0-6-3.58c-2.376,0-5.4,1.434-5.4,4.1.008,6.864,15.064,1.524,15.064,11.82,0,5.226-4.358,7.872-9.2,7.872-4.35,0-8.257-1.638-10.239-5.177Z" transform="translate(-8.27 13.597)" fill="#646463"/>
      <path id="Path_2" data-name="Path 2" d="M67.225,48.1c-2.589,3.85-6.5,5.447-11.009,5.447-7.766,0-12.885-5.562-12.885-13.434,0-7.6,5.283-13.328,12.713-13.328,7.823,0,11.951,6,11.951,11.894V41H46.631c0,2.752,1.925,9.576,9.633,9.576A10.214,10.214,0,0,0,64.8,46.065ZM64.693,38.029a8.561,8.561,0,0,0-8.814-8.265c-7.208,0-9.248,6.938-9.248,8.265Z" transform="translate(-13.164 13.597)" fill="#646463"/>
      <path id="Path_3" data-name="Path 3" d="M100.08,49.145a11.812,11.812,0,0,1-9.363,4.407c-7.815,0-13.377-5.619-13.377-13.377S82.9,26.79,90.717,26.79a12.459,12.459,0,0,1,9.469,4.407L97.54,33.179a9.3,9.3,0,0,0-6.832-3.416c-6.217,0-10.076,4.686-10.076,10.411s3.858,10.4,10.076,10.4a8.88,8.88,0,0,0,6.832-3.522Z" transform="translate(-19.315 13.597)" fill="#646463"/>
      <path id="Path_4" data-name="Path 4" d="M129.531,45.883c0,1.868.27,5.832.27,7.151h-3.277c-.057-1.868-.115-3.965-.221-4.456h-.164a9.519,9.519,0,0,1-8.7,5.12c-7.929,0-9.691-5.4-9.691-10.96V27.6h3.277V42.574c0,4.1,1.155,8.151,6.389,8.151,4.915,0,8.806-3.416,8.806-10.4V27.6H129.5Z" transform="translate(-24.814 13.451)" fill="#646463"/>
      <path id="Path_5" data-name="Path 5" d="M140.659,34.613c0-1.876-.279-5.841-.279-7.159h3.277c.049,1.876.106,3.965.221,4.456,1.638-2.965,4.292-5.12,8.093-5.12a7.864,7.864,0,0,1,1.925.279l-.385,3.277a4.1,4.1,0,0,0-1.27-.213c-5.734,0-8.314,3.965-8.314,8.921V52.888H140.65Z" transform="translate(-30.716 13.597)" fill="#646463"/>
      <path id="Path_6" data-name="Path 6" d="M179.2,48.1c-2.589,3.85-6.5,5.447-11.018,5.447-7.757,0-12.885-5.562-12.885-13.434,0-7.6,5.292-13.328,12.721-13.328,7.823,0,11.951,6,11.951,11.894V41H158.609c0,2.752,1.925,9.576,9.633,9.576a10.225,10.225,0,0,0,8.535-4.514Zm-2.539-10.076a8.554,8.554,0,0,0-8.806-8.265c-7.217,0-9.248,6.938-9.248,8.265Z" transform="translate(-33.414 13.597)" fill="#646463"/>
      <g id="Group_1" data-name="Group 1" transform="translate(153.227 29.181)">
        <path id="Path_7" data-name="Path 7" d="M273.479,13.11A24.443,24.443,0,0,0,253,24.316a27.523,27.523,0,0,1,0,26.5,24.46,24.46,0,1,0,20.552-37.681Z" transform="translate(-204.31 -13.11)" fill="#c2171c"/>
        <path id="Path_8" data-name="Path 8" d="M285.289,49.514v3.858H268.48V48.867l9.748-9.42c1.171-1.13,2.588-2.515,2.588-4.251a3.365,3.365,0,0,0-3.653-3.277,3.735,3.735,0,0,0-3.858,3.408l-4.464-.36c.418-4.636,3.793-7.086,8.323-7.086s8.118,2.3,8.118,7.127c0,3.154-1.638,5.316-3.858,7.372l-7.766,7.192Z" transform="translate(-207.11 -15.781)" fill="#fff"/>
        <path id="Path_9" data-name="Path 9" d="M218.028,13.11a24.46,24.46,0,1,0,24.452,24.484A24.46,24.46,0,0,0,218.028,13.11Z" transform="translate(-193.56 -13.11)" fill="#c2171c"/>
        <path id="Path_10" data-name="Path 10" d="M220.663,14.96l-7.3,25.1H209.1L203.3,20.948h-.074l-5.816,19.111H193.3l-7.405-25.1h4.89L195.5,33.039h.066L201.2,14.96h4.4l5.529,18.079h.074l4.923-18.079Z" transform="translate(-178.813 -2.706)" fill="#fff"/>
      </g>
    </g>
  </g>
</svg>
